<?xml version="1.0" encoding="utf-8"?>
<!-- Generator: Adobe Illustrator 25.2.3, SVG Export Plug-In . SVG Version: 6.00 Build 0)  -->
<svg version="1.1" id="レイヤー_1" xmlns="http://www.w3.org/2000/svg" xmlns:xlink="http://www.w3.org/1999/xlink" x="0px"
	 y="0px" viewBox="0 0 500 500" style="enable-background:new 0 0 500 500;" xml:space="preserve">
<style type="text/css">
	.st0{fill:#AED1EF;stroke:#000000;stroke-width:3;stroke-miterlimit:10;}
	.st1{fill:#FFFFFF;stroke:#FFFFFF;stroke-miterlimit:10;}
	.st2{fill:#FFFFFF;stroke:#FFFFFF;stroke-width:2;stroke-miterlimit:10;}
	.st3{fill:none;stroke:#FFFFFF;stroke-width:2;stroke-miterlimit:10;}
</style>
<path class="st0" d="M436.8,152.71c-1.76-8.3-4.26-16.19-7.79-22.61c-19.09-42.9-54.59-64.86-54.59-64.86l0,0
	c-3.61-2.43-7.45-4.75-11.56-6.94c-33.07-17.64-62.25-19.7-62.25-19.7S234.1,28.31,170.16,66.89S96.45,168.83,96.45,168.83
	s-2.06,16.32,4.41,39.69c0,11.61-0.59,13.67-10.88,32.48c-10.29,18.81-29.69,56.59-29.69,56.59s-5,11.02,6.17,16.17
	c11.17,5.14,20.25-7.2,24.11,19.59c3.86,26.79,6.91,66.11,12.79,75.22c5.88,9.11,12.49,13.96,36.75,11.76
	c24.25-2.2,30.21-4.78,36.75,1.76c6.54,6.54,11.32,30.43,12.35,40.57h206.37c0,0-14.4-57.32-12.35-84.66
	c2.06-27.34,15.36-56,21.31-65.92s20.14-38.73,20.14-38.73s9.63-26.09,11.17-33.81c1.54-7.72,4.63-29.54,4.63-29.54
	s0.57-9.01,0.2-21.48l0.12,0.23C441.06,175.71,439.53,163.7,436.8,152.71z"/>
<g id="レイヤー_3">
	<path class="st1" d="M392.03,435.02"/>
	<circle class="st1" cx="160.84" cy="136.53" r="20.21"/>
	<circle class="st1" cx="194.87" cy="215.14" r="10.11"/>
	<circle class="st1" cx="295.62" cy="128.35" r="24.42"/>
	<circle class="st1" cx="224.56" cy="175.76" r="16.1"/>
	<circle class="st1" cx="349.12" cy="220.91" r="20.21"/>
	<circle class="st1" cx="379.45" cy="136.53" r="20.21"/>
	<circle class="st1" cx="301.16" cy="200.69" r="10.11"/>
	<circle class="st1" cx="369.34" cy="89.7" r="10.11"/>
	<circle class="st1" cx="256.16" cy="235.35" r="21.35"/>
	<circle class="st1" cx="235.08" cy="79.59" r="26.62"/>
	<circle class="st1" cx="224.37" cy="135.99" r="7.64"/>
	<circle class="st1" cx="317.6" cy="77.91" r="5.47"/>
	<circle class="st1" cx="403.04" cy="191.86" r="5.47"/>
	<line class="st2" x1="173.83" y1="121.04" x2="213.6" y2="95.31"/>
	<line class="st2" x1="258.46" y1="92.33" x2="277.51" y2="111.97"/>
	<line class="st2" x1="312.13" y1="77.91" x2="228.08" y2="70.74"/>
	<line class="st2" x1="322.8" y1="79.59" x2="359.65" y2="90.69"/>
	<line class="st2" x1="229.43" y1="106.21" x2="224.37" y2="128.35"/>
	<line class="st2" x1="180.61" y1="140.77" x2="216.75" y2="136.53"/>
	<line class="st2" x1="166.23" y1="156.02" x2="186.78" y2="209.08"/>
	<line class="st2" x1="180.61" y1="140.77" x2="208.46" y2="172.84"/>
	<line class="st2" x1="224.37" y1="143.63" x2="224.56" y2="159.65"/>
	<line class="st2" x1="232.01" y1="135.99" x2="271.59" y2="132.7"/>
	<line class="st2" x1="315.58" y1="82.3" x2="305.93" y2="106.21"/>
	<line class="st2" x1="372.58" y1="99.27" x2="376.71" y2="116.5"/>
	<line class="st2" x1="362.42" y1="97.06" x2="318.42" y2="119.61"/>
	<line class="st2" x1="368.35" y1="153.43" x2="306.07" y2="191.86"/>
	<line class="st2" x1="296.26" y1="191.86" x2="295.62" y2="152.77"/>
	<line class="st2" x1="389.75" y1="153.93" x2="400.04" y2="187.29"/>
	<line class="st2" x1="397.57" y1="193.62" x2="364.09" y2="207.32"/>
	<line class="st2" x1="310.77" y1="203.83" x2="331.62" y2="210.8"/>
	<line class="st2" x1="330.84" y1="229.54" x2="277.51" y2="235.35"/>
	<line class="st2" x1="271.91" y1="220.94" x2="292.03" y2="205.03"/>
	<line class="st2" x1="230.84" y1="190.59" x2="249.29" y2="215.14"/>
	<line class="st2" x1="261.7" y1="214" x2="284.96" y2="148.6"/>
	<line class="st2" x1="204.97" y1="217.93" x2="236.82" y2="229.47"/>
	<line class="st2" x1="216.73" y1="189.82" x2="201.27" y2="207.32"/>
	<line class="st2" x1="224.37" y1="143.63" x2="224.56" y2="159.65"/>
	<circle class="st1" cx="144.39" cy="226.42" r="21.35"/>
	<line class="st2" x1="150.96" y1="154.16" x2="144.39" y2="205.07"/>
	<line class="st2" x1="165.74" y1="226.42" x2="186.36" y2="219.05"/>
	<line class="st2" x1="159.86" y1="233.74" x2="236.76" y2="244.26"/>
	<circle class="st1" cx="340.15" cy="280.35" r="5.47"/>
	<circle class="st1" cx="363.08" cy="285.82" r="5.47"/>
	<circle class="st1" cx="349.12" cy="256.7" r="7.3"/>
	<line class="st2" x1="275.54" y1="244.31" x2="341.82" y2="256.7"/>
	<line class="st2" x1="349.12" y1="241.12" x2="349.12" y2="249.4"/>
	<line class="st2" x1="345.62" y1="261.95" x2="340.15" y2="274.88"/>
	<line class="st2" x1="353.75" y1="262.35" x2="361.11" y2="280.72"/>
	<line class="st2" x1="345.43" y1="281.74" x2="357.62" y2="285.82"/>
	<line class="st3" x1="403.04" y1="197.32" x2="364.84" y2="282.02"/>
</g>
<g id="カメラ_1_">
	<polygon points="155.2,174.82 177.25,220.26 179.8,222.34 189.74,217.71 196.45,203.23 205.92,198.58 190.49,166.14 180.56,170.87 
		165.7,167.27 155.2,172.48 	"/>
	<polygon points="189.95,145.51 222.66,212.03 347.28,152.61 315.2,86.56 	"/>
	<path d="M265.39,200.3l46.84-22c0,0,9.79,17.32-8.23,31.51c0,16.32,0,16.32,0,16.32h59.61c0,0,0.71,19.16,0.71,19.87
		s-70.97,0-70.97,0s-7.1-0.43-9.23-9.23c0-9.51,0-22,0-22S272.2,212.93,265.39,200.3z"/>
</g>
<g>
	<g>
		<path d="M164.44,358.73c-0.62-2.12-1.54-4.41-4.57-4.41c-2.13,0-3.24,1.52-3.24,3.31c0,1.96,1.29,3.06,4.11,4.49
			c3.65,1.84,5.69,3.47,5.69,6.66c0,3.71-3.12,6.45-7.64,6.45c-2.05,0-3.85-0.56-5.32-1.04c-0.22-0.81-0.72-3.8-0.95-5.42l1.18-0.28
			c0.65,2.11,2.35,5.42,5.62,5.42c2.12,0,3.41-1.38,3.41-3.48c0-2.11-1.23-3.19-4.03-4.7c-3.41-1.84-5.53-3.46-5.53-6.73
			c0-3.25,2.59-5.98,7.29-5.98c2.11,0,3.84,0.49,4.55,0.6c0.13,1.2,0.33,2.76,0.59,4.84L164.44,358.73z"/>
		<path d="M178.25,368.42h-7.99l0.25-2.36h7.99L178.25,368.42z"/>
		<path d="M191.37,353.49c2.49,0,4.42,0.45,5.76,1.36c1.51,1.03,2.41,2.59,2.41,4.81c0,4.75-4.04,6.72-7.41,6.75
			c-0.34,0-0.73-0.03-0.95-0.07l-2.02-0.52v4.68c0,2.75,0.23,2.85,3.13,3.14v1.11h-9.92v-1.11c2.58-0.29,2.84-0.43,2.84-3.16v-12.66
			c0-2.8-0.34-3.02-2.84-3.22v-1.11H191.37z M189.16,364.52c0.39,0.2,1.13,0.36,1.96,0.36c1.74,0,4.29-0.96,4.29-5.21
			c0-3.64-2.12-4.93-4.46-4.93c-0.78,0-1.27,0.16-1.47,0.35c-0.24,0.21-0.32,0.56-0.32,1.19V364.52z"/>
		<path d="M210.87,374.74h-8.24v-1.04c1.85-0.2,2.02-0.36,2.02-2.38v-7.04c0-1.82-0.13-1.96-1.79-2.25v-0.94
			c1.88-0.24,3.58-0.63,5.44-1.28c0,1.08,0,2.5,0,3.55c1.36-2.06,2.6-3.48,4.05-3.48c1.21,0,2.05,0.79,2.05,1.82
			c0,1.3-0.93,2.15-1.47,2.44c-0.41,0.2-0.72,0.08-0.96-0.13c-0.53-0.47-0.95-0.92-1.51-0.92c-0.56,0-1.51,0.63-2.15,2.02v6.19
			c0,2.03,0.21,2.15,2.58,2.39V374.74z"/>
		<path d="M224.27,359.89c4.43,0,7.38,3.34,7.38,7.37c0,5.28-3.84,7.88-7.47,7.88c-4.79,0-7.58-3.69-7.58-7.46
			C216.61,362.55,220.74,359.89,224.27,359.89z M223.88,361.13c-1.61,0-3.13,1.63-3.13,5.57c0,4.09,1.51,7.16,3.79,7.16
			c1.52,0,2.98-1.07,2.98-5.74C227.52,363.83,226.2,361.13,223.88,361.13z"/>
		<path d="M234.73,361.05c1.91-0.22,3.83-0.67,5.68-1.21c0,1.43,0,2.84,0,4.25v6.58c0,2.4-0.22,3.71-0.86,5.33
			c-1.25,3.16-3.55,5.79-4.35,6.4c-0.45,0.3-0.72,0.42-1.06,0.42c-0.58,0-1.29-0.73-1.29-1.71c0-0.49,0.24-0.77,0.67-0.84
			c1.38-0.18,2.21-0.42,2.52-0.86c0.26-0.39,0.44-1.18,0.55-2.29c0.13-1.67,0.18-3.78,0.18-6.26v-6.18c0-2.3-0.21-2.36-2.03-2.68
			V361.05z M238.37,357.4c-1.13,0-2.11-0.96-2.11-2.09c0-1.23,0.99-2.12,2.15-2.12c1.16,0,2.09,0.89,2.09,2.12
			C240.49,356.45,239.56,357.4,238.37,357.4z"/>
		<path d="M257.29,371.68c-2.03,2.83-4.53,3.45-5.79,3.45c-4.24,0-6.71-3.25-6.71-7.09c0-2.27,0.98-4.45,2.34-5.83
			c1.44-1.49,3.26-2.32,5.02-2.32c3.08,0,5.28,2.58,5.26,5.24c-0.01,0.59-0.07,1.05-0.5,1.16c-0.63,0.15-5.09,0.4-8.52,0.53
			c0.05,3.79,2.24,5.56,4.59,5.56c1.3,0,2.56-0.49,3.75-1.54L257.29,371.68z M251.46,361.19c-1.38,0-2.61,1.49-2.9,4.1
			c1.51-0.02,2.96-0.04,4.53-0.1c0.5-0.02,0.7-0.12,0.7-0.65C253.82,362.87,252.93,361.19,251.46,361.19z"/>
		<path d="M272.92,371.65c-1.48,2.07-3.67,3.48-5.66,3.48c-4.39,0-6.97-3.39-6.97-6.97c0-2.48,1.2-4.72,3.32-6.3
			c2.01-1.51,4.04-1.97,5.44-1.97c1.32,0,2.38,0.39,2.93,0.82c0.46,0.34,0.59,0.67,0.59,1.12c-0.02,0.87-0.9,1.71-1.37,1.71
			c-0.21,0-0.4-0.09-0.68-0.35c-1.27-1.08-2.38-1.59-3.37-1.59c-1.58,0-3.25,1.45-3.25,4.93c-0.01,4.42,3.14,5.86,4.72,5.86
			c1.35,0,2.38-0.36,3.67-1.52L272.92,371.65z"/>
		<path d="M282.12,374.75c-0.56,0.27-1.08,0.38-1.34,0.38c-2.37,0-3.74-1.21-3.74-4.06v-9.26h-2.15l-0.17-0.39l0.93-1.14h1.4v-2.73
			c0.94-0.74,2.31-1.72,3.27-2.46l0.45,0.19c-0.04,1.05-0.1,2.85-0.08,4.99h3.43c0.29,0.33,0.17,1.24-0.24,1.53h-3.19v8.14
			c0,2.58,1.05,2.95,1.75,2.95c0.64,0,1.18-0.17,1.72-0.4l0.32,1.06L282.12,374.75z"/>
		<path d="M301.28,369.71c-0.49,1.66-1.09,3.71-1.41,5.03h-12.9v-0.85c1.76-1.72,3.67-3.65,5.32-5.52c2.31-2.63,3.72-4.99,3.72-7.65
			c0-2.46-1.25-3.99-3.53-3.99c-2.07,0-3.47,1.51-4.47,2.96l-0.9-0.77l2.01-2.95c1.08-1.25,2.82-2,4.82-2
			c3.21,0,5.86,2.19,5.86,5.79c0,2.63-0.99,4.53-4.25,7.64c-1.32,1.28-3.23,3.08-4.49,4.21c0.17,0,5.57,0,5.76,0
			c1.94,0,2.36-0.14,3.54-2.2L301.28,369.71z"/>
		<path d="M311.35,353.98c5.33,0,7.16,5.73,7.16,10.56c0,4.77-1.83,10.59-7.16,10.59c-5.36,0-7.22-5.69-7.22-10.56
			C304.14,359.75,306.06,353.98,311.35,353.98z M311.31,355.29c-2.51,0-3.11,4.74-3.11,9.17c0,4.45,0.77,9.36,3.18,9.36
			c2.45,0,3.07-4.77,3.07-9.32C314.44,359.88,313.73,355.29,311.31,355.29z"/>
		<path d="M335.88,369.71c-0.49,1.66-1.09,3.71-1.41,5.03h-12.9v-0.85c1.76-1.72,3.67-3.65,5.32-5.52c2.31-2.63,3.72-4.99,3.72-7.65
			c0-2.46-1.25-3.99-3.53-3.99c-2.07,0-3.47,1.51-4.47,2.96l-0.9-0.77l2.01-2.95c1.08-1.25,2.82-2,4.82-2
			c3.21,0,5.86,2.19,5.86,5.79c0,2.63-0.99,4.53-4.25,7.64c-1.32,1.28-3.23,3.08-4.49,4.21c0.18,0,5.57,0,5.76,0
			c1.94,0,2.36-0.14,3.54-2.2L335.88,369.71z"/>
		<path d="M340.57,374.74v-1.11c3.46-0.19,3.68-0.48,3.68-2.87v-12.09c0-1.67-0.46-1.78-1.84-1.93l-1.2-0.16v-0.99
			c2.39-0.32,4.98-0.93,6.81-1.62v16.79c0,2.44,0.2,2.68,3.65,2.87v1.11H340.57z"/>
	</g>
</g>
</svg>
